# xmcd
#
# Track frame offsets:
#	150
#	12964
#	26961
#	42394
#	55883
#	72608
#	84026
#	99622
#	113390
#	130939
#	144060
#	164560
#
# Disc length: 2364 seconds
# Revision: 0
# Processed by: cddbd v1.5.2PL0 Copyright (c) Steve Scherf et al.
# Submitted via: dBpowerAMP V12.0
#
DISCID=9b093a0c
DTITLE=Sister Sadie - Sister Sadie - II
DYEAR=2018
DGENRE=Bluegrass
TTITLE0=Losing You Blues
TTITLE1=No Smoky Mountains
TTITLE2=Something To Lose
TTITLE3=Raleigh's Ride
TTITLE4=I'm Not a Candle In The Wind
TTITLE5=Since I Laid My Burden Down
TTITLE6=Jay Hugh
TTITLE7=It's You Again
TTITLE8=900 Miles
TTITLE9=Morning Sky
TTITLE10=Love Has No Pride
TTITLE11=I Washed My Face In the Morning Dew
EXTD=
EXTT0=
EXTT1=
EXTT2=
EXTT3=
EXTT4=
EXTT5=
EXTT6=
EXTT7=
EXTT8=
EXTT9=
EXTT10=
EXTT11=
PLAYORDER=
